<svg version="1.1" id="Layer_1" xmlns="http://www.w3.org/2000/svg" xmlns:xlink="http://www.w3.org/1999/xlink" x="0px" y="0px"
	 width="100%" viewBox="0 0 150 280" enable-background="new 0 0 150 280" xml:space="preserve">
<path fill="#EC852C" opacity="1.000000" stroke="none" 
	d="
M79.000000,1.000000 
	C84.022095,1.000000 89.044182,1.000000 94.170219,1.305378 
	C94.876503,5.601096 96.918076,7.671660 101.208160,7.044280 
	C102.103867,6.913292 103.121994,7.285143 104.024391,7.596950 
	C106.732376,8.532641 109.411041,9.553238 112.101143,10.540703 
	C112.338974,10.113608 112.576813,9.686513 112.814644,9.259418 
	C112.939537,11.642099 113.064430,14.024780 113.196609,16.546568 
	C122.697289,11.070861 130.919800,13.930054 134.703384,23.249027 
	C136.919922,28.708376 139.715088,33.858898 139.062637,40.177277 
	C138.377060,46.816494 138.424408,53.531395 138.133377,60.656025 
	C144.103073,61.660778 137.354965,66.564827 139.137543,68.947365 
	C140.607040,68.213921 142.004364,67.516510 144.451553,66.295105 
	C143.446045,70.845779 142.723175,74.117302 141.998032,77.399139 
	C143.493118,77.882217 144.776443,78.296867 146.106354,78.726578 
	C145.032104,83.398041 143.964615,87.643990 143.141983,91.936852 
	C142.968307,92.843170 143.660233,93.932365 144.008896,94.917633 
	C144.486481,96.267181 145.495468,97.618675 145.438446,98.932983 
	C145.241074,103.483620 143.204254,108.553703 144.610031,112.432007 
	C146.639648,118.031387 145.725937,122.691193 143.744827,127.522385 
	C142.480667,130.605179 142.549438,132.686218 146.302170,133.825073 
	C144.334991,139.615616 142.443817,145.182465 140.567871,150.704453 
	C147.656418,151.523651 147.537079,158.219955 147.611511,161.921249 
	C147.845566,173.559052 146.537491,185.244339 145.518066,196.884216 
	C144.974594,203.089554 141.455002,208.933578 144.137100,215.542313 
	C146.793976,222.088928 146.708847,228.964905 145.109772,235.853531 
	C144.046616,240.433472 147.264709,245.778458 151.000000,246.000000 
	C151.000000,250.024551 151.000000,254.049088 150.767670,258.199738 
	C150.139709,258.619507 149.719208,258.885193 149.352280,259.211182 
	C145.772873,262.391205 142.203064,265.582031 138.629288,268.768402 
	C135.353104,271.689453 132.391586,274.778931 127.080109,273.177856 
	C124.667816,272.450714 121.702057,273.559723 118.756546,273.576660 
	C113.660294,272.502075 112.446777,268.462463 111.208878,264.259064 
	C109.279816,265.705353 107.745926,266.855347 105.286438,268.699310 
	C106.820969,252.694809 108.322968,238.054825 109.538124,223.391052 
	C109.751564,220.815414 109.701942,217.192535 108.168633,215.672791 
	C101.036171,208.603470 99.558533,200.896378 103.460220,191.786499 
	C105.191475,187.744232 107.071747,183.645096 103.439751,179.317841 
	C102.499016,178.197021 103.099121,175.782944 102.991386,173.962906 
	C102.890808,172.263916 102.790123,170.564926 102.655739,168.296280 
	C99.629089,170.022247 97.366798,171.312347 93.805344,173.343307 
	C93.805344,169.331390 93.805344,166.300507 93.805344,162.114334 
	C90.970764,163.011688 87.509514,163.588669 84.589050,165.166580 
	C81.134377,167.033127 78.146469,169.763565 74.577499,172.223480 
	C72.284111,172.474411 70.106583,173.281677 68.504326,172.643845 
	C63.798954,170.770691 62.282063,174.367004 61.218945,177.101135 
	C60.077255,180.037354 60.193737,183.515472 60.033798,186.770508 
	C59.612476,195.345230 59.180325,203.925278 59.075222,212.507156 
	C59.024551,216.644272 59.773911,220.785812 60.026859,224.933533 
	C60.272942,228.968719 60.388382,233.013474 60.475796,237.055878 
	C60.507008,238.499161 60.105148,239.961838 60.214424,241.391708 
	C60.752171,248.427933 61.650223,255.446716 61.909580,262.490479 
	C62.076462,267.022644 57.904301,270.308319 53.956028,270.050262 
	C51.823448,269.910828 48.984653,270.083038 47.572243,271.349823 
	C43.001415,275.449310 37.871559,276.546417 31.868502,275.570801 
	C28.164497,271.590027 24.659235,267.871307 21.089394,263.873047 
	C20.974756,263.408875 20.924704,263.224243 20.862625,262.633972 
	C20.714298,258.943176 20.577999,255.658035 20.584312,252.052444 
	C20.945173,250.594543 21.163420,249.457108 21.558853,247.989731 
	C24.156343,242.142883 24.118950,236.742645 22.732960,230.762009 
	C21.535557,225.595169 22.504824,219.931763 22.464354,214.488251 
	C22.450043,212.563217 22.282284,210.639313 22.126648,208.301895 
	C21.991983,205.595734 21.915253,203.302582 21.882843,200.567978 
	C22.374716,196.681671 23.086315,193.243744 23.177113,189.789490 
	C23.237774,187.481735 23.242033,184.108093 21.849951,183.004288 
	C14.426362,177.117935 15.253325,170.042953 18.419514,162.778198 
	C25.416592,146.723572 23.647017,129.932098 22.433506,113.355827 
	C21.760685,104.165237 21.650972,95.682739 28.014971,88.042732 
	C19.825882,83.196693 19.991274,75.592598 21.353149,68.041481 
	C22.133383,63.715366 24.396688,59.668377 25.850420,55.446865 
	C26.515528,53.515457 26.776577,51.448944 27.327692,49.473507 
	C29.177404,42.843334 29.526026,35.099411 33.326855,29.875534 
	C38.689922,22.504515 46.226776,16.681650 50.601643,7.958093 
	C53.960629,6.150674 57.104664,4.623071 60.169807,2.950866 
	C60.913342,2.545227 61.396896,1.663051 62.000000,0.999999 
	C63.388889,1.000000 64.777779,1.000000 66.244919,1.286319 
	C68.786690,2.678310 71.222328,4.536485 73.723419,4.629208 
	C75.435074,4.692665 77.237923,2.296552 79.000000,1.000000 
M122.487595,238.632584 
	C122.383308,237.025986 122.279030,235.419403 122.071098,233.063828 
	C122.103378,232.057373 122.135666,231.050934 122.480209,229.296448 
	C122.659622,225.794678 122.839027,222.292908 123.082169,217.547119 
	C116.150398,226.188568 115.657486,236.004990 121.407379,243.717773 
	C121.665115,241.715225 121.840988,240.348724 122.019287,239.037796 
	C122.019287,239.037796 121.964043,239.031464 122.487595,238.632584 
M79.040565,163.906769 
	C75.746628,164.973465 72.452682,166.040161 69.158745,167.106857 
	C69.338234,167.637787 69.517723,168.168732 69.697212,168.699661 
	C73.864746,169.141815 77.611450,168.201477 80.878723,164.318634 
	C80.895218,163.979507 80.911720,163.640396 80.928215,163.301270 
	C80.548843,163.451126 80.169472,163.600998 79.040565,163.906769 
M91.043320,135.028320 
	C91.043320,135.028320 91.012482,135.043442 91.736229,135.104889 
	C93.541237,134.526169 95.346237,133.947433 97.769608,133.170456 
	C96.801605,135.580307 96.126945,137.259857 95.064392,139.905090 
	C97.932388,138.479599 99.800064,137.551300 101.729958,136.592072 
	C98.333839,124.276215 106.245728,114.609901 108.362572,103.358604 
	C103.383957,102.915222 102.595291,99.892967 103.991585,95.903938 
	C106.127121,89.802986 108.470528,83.774834 110.610451,77.675346 
	C111.055878,76.405739 111.668488,74.318985 111.070335,73.694168 
	C104.908699,67.257912 104.436981,59.753868 105.501221,51.414642 
	C105.857552,48.622463 104.141258,44.628273 102.001640,42.722240 
	C99.917305,40.865459 95.988708,41.221882 93.046913,40.129669 
	C91.356140,39.501926 90.017021,37.927048 87.489075,35.988113 
	C83.885468,35.805790 78.615143,35.665802 73.367630,35.242874 
	C66.153862,34.661472 63.892479,36.230953 64.019714,42.824047 
	C63.072693,50.259083 57.329388,56.040222 57.323891,63.994152 
	C57.319061,70.982330 55.554905,77.950882 55.097542,84.962662 
	C54.691212,91.192116 55.012276,97.469017 55.012276,103.376709 
	C56.296692,105.035675 58.064991,106.598938 58.919956,108.560333 
	C61.391766,114.230927 58.060448,118.462372 54.867683,122.643684 
	C53.748058,124.109970 52.703873,125.633865 51.625229,127.131447 
	C51.959358,127.358513 52.293484,127.585571 52.627613,127.812637 
	C53.850155,127.125900 55.072697,126.439163 57.180660,125.255058 
	C57.180660,130.458328 57.180660,134.660324 57.180660,139.273163 
	C59.628876,138.501038 62.144161,136.884033 63.104462,137.540756 
	C68.662025,141.341492 72.029221,137.645309 75.917465,134.691025 
	C77.608940,133.405853 79.865509,132.864441 81.926620,132.709991 
	C80.428818,135.211716 78.931007,137.713440 77.433205,140.215164 
	C77.598236,140.527176 77.763268,140.839188 77.928299,141.151199 
	C80.329979,140.095581 82.731667,139.039963 85.813553,137.981445 
	C87.195297,137.278687 88.577042,136.575928 90.462700,135.782913 
	C90.652641,135.519989 90.842575,135.257065 91.043320,135.028320 
M27.794756,257.891846 
	C26.291218,264.514465 27.693344,268.725800 32.247238,271.264954 
	C35.365681,273.003723 38.920258,271.975067 38.782360,269.087128 
	C38.591171,265.083221 37.572323,261.118805 36.907848,257.137512 
	C36.633953,256.515228 36.360058,255.892944 36.086166,255.270660 
	C33.345673,262.183289 30.758699,255.169907 27.794756,257.891846 
M110.448387,189.837418 
	C110.356819,188.347610 110.265251,186.857788 110.112473,184.372147 
	C102.616760,195.199158 103.246910,209.311554 111.966324,213.435562 
	C111.433594,205.337265 110.949631,197.980179 110.448387,189.837418 
M125.510895,28.090055 
	C122.440826,29.381815 119.370758,30.673574 116.034851,32.077187 
	C116.783592,34.433556 117.664322,37.205345 118.896500,41.083157 
	C120.762177,35.231831 123.216805,32.615982 127.634811,38.600048 
	C128.172592,35.275166 128.807556,32.743298 128.851685,30.201180 
	C128.864410,29.467749 127.177422,28.704823 125.510895,28.090055 
M49.980663,253.982727 
	C53.514523,248.081589 51.008156,242.736786 48.679008,237.373474 
	C48.018147,243.205200 38.919853,249.625000 49.980663,253.982727 
M107.926361,134.083206 
	C110.385468,127.596405 108.570976,121.054001 108.203674,114.441719 
	C106.178467,120.138763 104.772598,125.902367 103.916145,131.746490 
	C103.470749,134.785751 104.561394,135.367706 107.926361,134.083206 
M140.102524,259.540619 
	C139.842697,261.229187 139.582870,262.917755 139.314636,264.660889 
	C146.848236,261.060150 150.070084,253.706177 146.482681,248.464096 
	C142.489655,250.795303 140.396622,254.197540 140.102524,259.540619 
M127.968178,170.641983 
	C126.993813,167.270020 126.019447,163.898041 125.045082,160.526077 
	C124.364891,160.557541 123.684700,160.589020 123.004509,160.620483 
	C122.742096,165.387604 122.048912,170.186005 122.391937,174.909164 
	C122.574059,177.416901 125.138687,177.713974 126.772820,175.664825 
	C127.610443,174.614456 127.603447,172.890533 127.968178,170.641983 
M76.238762,24.680424 
	C78.535309,28.820450 82.181465,30.555498 86.602028,26.656380 
	C84.862503,24.266977 83.061142,21.792629 81.259773,19.318277 
	C79.643845,20.878313 78.027924,22.438347 76.238762,24.680424 
M114.635605,258.341736 
	C115.606277,261.628265 116.576950,264.914795 117.547623,268.201324 
	C118.207207,268.041382 118.866783,267.881409 119.526367,267.721466 
	C119.526367,263.352051 119.526367,258.982635 119.526367,254.613220 
	C119.060501,254.485229 118.594627,254.357254 118.128761,254.229279 
	C117.092010,255.396927 116.055260,256.564575 114.635605,258.341736 
M124.062698,195.216858 
	C123.786240,192.601639 123.509789,189.986435 123.233337,187.371216 
	C122.484619,187.403198 121.735893,187.435181 120.987175,187.467148 
	C120.255165,192.566650 119.523155,197.666153 118.791138,202.765656 
	C119.505066,202.957581 120.218987,203.149521 120.932915,203.341446 
	C121.963379,200.915268 122.993843,198.489090 124.062698,195.216858 
M51.004841,118.344437 
	C51.139576,119.199661 51.274311,120.054886 51.452419,121.185417 
	C57.007061,116.398254 57.568455,110.820366 51.835938,106.431381 
	C51.510998,110.754578 51.256748,114.137253 51.004841,118.344437 
M43.005077,133.764023 
	C43.005077,135.986465 43.005077,138.208908 43.005077,140.528290 
	C49.675880,138.899185 50.190521,137.525787 46.895493,129.100067 
	C45.408451,130.558411 44.210484,131.733276 43.005077,133.764023 
M138.180618,243.326889 
	C142.254181,240.686966 142.140289,239.411179 137.256119,233.600861 
	C135.819656,237.507965 131.037842,241.128677 136.617676,245.338211 
	C136.939621,244.895187 137.316071,244.377167 138.180618,243.326889 
M32.000717,60.984283 
	C31.824009,60.039696 31.647301,59.095104 31.470592,58.150517 
	C30.875765,58.164379 30.280937,58.178238 29.686110,58.192101 
	C29.167152,65.200462 28.648195,72.208824 28.129238,79.217194 
	C28.620266,79.254814 29.111294,79.292435 29.602322,79.330055 
	C30.384579,73.477394 31.166834,67.624725 32.000717,60.984283 
M125.205353,17.048893 
	C124.030083,16.662388 122.854813,16.275883 121.605171,15.864918 
	C120.802681,18.009573 120.109505,19.862061 119.371300,21.834917 
	C123.049767,22.275637 126.391373,22.675999 129.732971,23.076361 
	C130.240540,22.302992 130.748108,21.529625 131.255676,20.756256 
	C129.462585,19.635681 127.669479,18.515104 125.205353,17.048893 
M38.603848,202.792572 
	C38.603848,199.993576 38.603848,197.194595 38.603848,194.395599 
	C37.975780,194.365402 37.347717,194.335205 36.719650,194.305023 
	C33.711784,198.509399 35.164913,203.261642 35.168736,207.835907 
	C35.623653,207.953857 36.078571,208.071808 36.533489,208.189758 
	C37.142052,206.643860 37.750618,205.097977 38.603848,202.792572 
M33.695755,234.159897 
	C31.154011,241.542664 31.843287,244.515182 38.171120,246.802643 
	C36.678776,241.908249 35.498367,238.036911 33.695755,234.159897 
M83.510826,157.601746 
	C79.170113,154.149292 75.825432,156.447723 71.509315,159.687347 
	C76.387756,160.318787 80.367630,163.080536 83.510826,157.601746 
M23.917721,177.958252 
	C23.054792,174.218552 22.191864,170.478867 21.303751,166.630020 
	C17.753975,170.743332 18.500399,177.544647 22.699636,179.991379 
	C22.855473,180.082184 23.638727,179.096176 23.917721,177.958252 
M26.754467,242.725006 
	C23.778355,247.865662 22.480730,253.258362 23.457106,258.992554 
	C23.975784,259.076538 24.494461,259.160522 25.013138,259.244507 
	C25.818197,253.779678 26.623257,248.314850 26.754467,242.725006 
M29.320141,194.705154 
	C32.657154,188.905411 32.573277,188.444794 27.263920,186.769165 
	C26.778004,190.729935 26.307964,194.561264 25.837927,198.392593 
	C26.246895,198.473251 26.655861,198.553925 27.064829,198.634583 
	C27.712473,197.529068 28.360119,196.423538 29.320141,194.705154 
M109.859550,93.568367 
	C109.859550,91.553497 109.859550,89.538628 109.859550,87.523758 
	C107.965569,90.155548 107.083168,92.902641 106.593987,95.718063 
	C106.336174,97.201836 106.731018,98.809937 106.961327,100.342339 
	C106.976265,100.441727 108.568642,100.555511 108.649063,100.353226 
	C109.218910,98.919876 109.622475,97.414879 109.994637,95.911819 
	C110.107689,95.455223 109.955170,94.932869 109.859550,93.568367 
M29.578514,159.075378 
	C30.999813,150.087311 30.999813,150.087311 29.106201,147.400848 
	C25.697954,152.352158 25.729229,155.793976 29.578514,159.075378 
M89.458832,23.456078 
	C93.212990,21.517775 95.044044,18.888250 93.032936,14.472990 
	C88.552910,16.236721 86.645905,18.705074 89.458832,23.456078 
M31.265970,168.450546 
	C33.209381,164.687592 38.876484,162.861023 37.740150,156.658691 
	C34.993256,159.829620 32.592682,162.275467 30.648758,165.042160 
	C30.062365,165.876755 30.743694,167.602066 31.265970,168.450546 
M116.626762,48.087982 
	C115.806305,47.181721 114.985847,46.275459 114.165390,45.369194 
	C113.701141,45.483368 113.236893,45.597538 112.772652,45.711712 
	C112.911453,48.256874 112.976280,50.812454 113.330376,53.327309 
	C113.358505,53.527100 116.266106,53.711231 116.345673,53.449596 
	C116.799637,51.956699 116.801727,50.326393 116.626762,48.087982 
M54.984596,43.346943 
	C54.947079,39.847618 53.465099,40.135262 51.505219,42.079052 
	C48.761971,44.799782 49.291512,47.805874 51.181324,52.356628 
	C52.771885,48.880840 53.852707,46.518967 54.984596,43.346943 
M51.003902,227.600189 
	C51.087780,229.376648 51.171661,231.153107 51.255543,232.929565 
	C51.794300,232.917770 52.333061,232.905975 52.871822,232.894180 
	C53.551018,228.205338 54.230209,223.516495 54.909401,218.827652 
	C54.272648,218.715744 53.635891,218.603821 52.999138,218.491913 
	C52.334389,221.239548 51.669640,223.987183 51.003902,227.600189 
M25.791008,97.005531 
	C25.432295,102.049187 25.073580,107.092842 24.714867,112.136505 
	C25.275690,112.161224 25.836515,112.185944 26.397339,112.210663 
	C26.848892,106.296219 27.300446,100.381775 27.751997,94.467331 
	C27.538208,94.400787 27.324419,94.334236 27.110628,94.267693 
	C26.730587,94.946129 26.350546,95.624573 25.791008,97.005531 
M23.992319,164.438904 
	C24.355394,166.791824 24.718470,169.144730 25.141804,171.888153 
	C29.532850,166.748291 26.766663,162.761337 23.984306,157.996063 
	C23.984306,160.363647 23.984306,161.991745 23.992319,164.438904 
M139.430969,229.906158 
	C140.295776,230.941330 141.160568,231.976517 142.025375,233.011688 
	C142.398468,232.900528 142.771576,232.789368 143.144684,232.678192 
	C142.858185,228.732361 142.571686,224.786514 142.285187,220.840668 
	C141.966141,220.852295 141.647110,220.863922 141.328064,220.875549 
	C140.576050,223.646378 139.824036,226.417206 139.430969,229.906158 
M117.500763,211.209290 
	C117.500763,212.972534 117.500763,214.735794 117.500763,216.499039 
	C118.033798,216.586639 118.566833,216.674255 119.099869,216.761871 
	C120.081139,213.883286 121.062416,211.004700 122.043686,208.126114 
	C121.567650,207.806763 121.091606,207.487396 120.615570,207.168030 
	C119.642502,208.267822 118.669426,209.367599 117.500763,211.209290 
M23.037901,73.863976 
	C23.802229,76.939232 24.566555,80.014496 25.330883,83.089752 
	C25.892992,82.934761 26.455101,82.779762 27.017212,82.624771 
	C26.271879,78.769646 25.526546,74.914520 24.781214,71.059395 
	C24.345631,71.131424 23.910046,71.203453 23.474461,71.275490 
	C23.334764,71.898720 23.195068,72.521950 23.037901,73.863976 
M109.286781,168.140564 
	C105.101974,169.405914 104.938095,170.499130 109.525589,175.602127 
	C109.694962,173.186157 109.864326,170.770172 109.286781,168.140564 
M110.883629,135.835098 
	C111.183792,136.479462 111.483948,137.123825 111.784111,137.768188 
	C112.501556,137.225494 113.706169,136.789001 113.851685,136.121613 
	C114.464539,133.310760 114.761276,130.430969 115.173683,127.576408 
	C114.659744,127.477623 114.145805,127.378838 113.631859,127.280045 
	C112.757912,129.898407 111.883965,132.516769 110.883629,135.835098 
M88.970360,6.934758 
	C89.941277,6.290026 90.912193,5.645294 91.883110,5.000560 
	C90.912827,4.336580 89.901299,3.058443 88.979774,3.120346 
	C85.841553,3.331153 82.735069,4.014375 79.616470,4.517253 
	C79.724464,5.104056 79.832458,5.690858 79.940453,6.277660 
	C81.622017,5.867543 83.299126,5.174880 84.986740,5.148253 
	C86.082176,5.130970 87.192940,6.085207 88.970360,6.934758 
M126.929688,256.591827 
	C127.221893,257.574799 127.514099,258.557739 127.806305,259.540710 
	C128.316711,259.511475 128.827103,259.482269 129.337509,259.453033 
	C129.477829,256.761230 129.618149,254.069397 129.758469,251.377579 
	C128.943222,251.301117 128.127991,251.224640 127.312752,251.148178 
	C127.149628,252.716507 126.986504,254.284836 126.929688,256.591827 
M114.851044,198.572708 
	C114.957939,199.202362 115.064835,199.832001 115.171722,200.461655 
	C116.815361,196.252899 118.496262,192.090836 116.088654,187.581833 
	C115.685349,190.998215 115.282051,194.414597 114.851044,198.572708 
M38.141258,232.533096 
	C39.541828,234.126556 40.942402,235.720032 42.342976,237.313492 
	C42.797173,237.144104 43.251373,236.974701 43.705574,236.805313 
	C43.364601,235.380585 43.467571,233.416992 42.565262,232.673599 
	C41.540504,231.829315 39.616550,232.076416 38.141258,232.533096 
M51.995045,98.324150 
	C51.995045,96.515190 51.995045,94.706230 51.995045,92.897278 
	C51.723637,92.882767 51.452232,92.868256 51.180824,92.853745 
	C49.999458,96.070000 48.818096,99.286247 47.636730,102.502495 
	C48.312843,102.806335 48.988953,103.110176 49.665066,103.414017 
	C50.439499,101.997704 51.213932,100.581398 51.995045,98.324150 
M39.733128,176.766266 
	C39.172325,178.272232 38.611519,179.778198 38.050716,181.284164 
	C38.409443,181.608810 38.768169,181.933456 39.126896,182.258102 
	C40.766129,181.536346 42.405365,180.814590 45.008301,179.668518 
	C42.744160,178.167130 41.560867,177.382462 39.733128,176.766266 
M121.205559,27.936745 
	C122.393555,27.207870 123.581551,26.478996 125.911461,25.049515 
	C121.471062,25.420670 116.446686,21.055504 116.836235,29.121052 
	C118.069275,28.737747 119.258759,28.367985 121.205559,27.936745 
M42.934967,222.134186 
	C42.844372,221.995209 42.774357,221.833084 42.654781,221.726685 
	C42.592010,221.670853 42.370350,221.669540 42.342316,221.716431 
	C40.095844,225.475555 41.096180,228.368668 44.667042,230.749161 
	C45.025558,228.519318 45.351940,226.489365 45.657887,224.586502 
	C44.743000,223.987930 43.879547,223.423019 42.934967,222.134186 
z"/>
<path fill="#D11F19" opacity="1.000000" stroke="none" 
	d="
M21.153973,264.152588 
	C24.659235,267.871307 28.164497,271.590027 31.546379,275.720642 
	C29.948664,277.755035 28.474329,279.377502 26.999998,281.000000 
	C22.643101,281.000000 18.286201,281.000000 13.750801,280.726227 
	C10.752370,276.679657 6.417945,273.242371 5.489365,269.050568 
	C4.282587,263.602966 5.000023,257.363068 6.360798,251.825775 
	C7.497922,247.198578 8.933069,243.073105 7.063169,238.330093 
	C6.191833,236.119949 6.011919,233.507507 6.065153,231.089447 
	C6.177494,225.986496 7.523880,220.760223 6.782377,215.822021 
	C5.461525,207.025604 5.644266,198.552872 8.655783,190.214157 
	C5.956989,188.376083 3.478494,186.688049 0.999999,185.000000 
	C1.000000,179.645065 1.000000,174.290146 1.347320,168.674377 
	C3.173328,163.846176 5.608459,159.347397 5.942069,154.697861 
	C6.770902,143.146317 7.545867,131.452866 6.616660,119.955894 
	C5.841396,110.363663 5.456068,101.453224 10.724858,94.683502 
	C8.562098,90.628761 5.747376,87.456276 5.227757,83.944206 
	C4.108518,76.379341 5.238434,68.859154 8.968722,61.902794 
	C9.948223,60.076187 10.900316,57.933578 10.901608,55.935467 
	C10.907452,46.901348 13.497169,38.811607 19.111687,31.774302 
	C20.816978,29.636873 23.279585,28.097080 24.946636,25.937243 
	C27.487612,22.645144 29.400530,18.860123 32.006279,15.627965 
	C36.677868,9.833359 42.830711,7.189353 50.357693,8.184754 
	C46.226776,16.681650 38.689922,22.504515 33.326855,29.875534 
	C29.526026,35.099411 29.177404,42.843334 27.327692,49.473507 
	C26.776577,51.448944 26.515528,53.515457 25.850420,55.446865 
	C24.396688,59.668377 22.133383,63.715366 21.353149,68.041481 
	C19.991274,75.592598 19.825882,83.196693 28.014971,88.042732 
	C21.650972,95.682739 21.760685,104.165237 22.433506,113.355827 
	C23.647017,129.932098 25.416592,146.723572 18.419514,162.778198 
	C15.253325,170.042953 14.426362,177.117935 21.849951,183.004288 
	C23.242033,184.108093 23.237774,187.481735 23.177113,189.789490 
	C23.086315,193.243744 22.374716,196.681671 21.614975,200.426361 
	C20.871956,200.680954 20.441124,200.635712 20.010292,200.590454 
	C19.572994,204.770111 19.135696,208.949753 18.698399,213.129410 
	C19.161184,213.205688 19.623970,213.281967 20.086754,213.358246 
	C20.786030,211.810471 21.485304,210.262680 22.184580,208.714890 
	C22.282284,210.639313 22.450043,212.563217 22.464354,214.488251 
	C22.504824,219.931763 21.535557,225.595169 22.732960,230.762009 
	C24.118950,236.742645 24.156343,242.142883 21.438663,247.889252 
	C21.141289,248.118698 20.901869,247.916611 20.919333,247.532562 
	C20.138262,244.349930 19.339727,241.551346 18.521137,238.682495 
	C15.805712,243.630676 16.387012,248.898834 20.050323,252.028351 
	C20.179323,252.144852 20.441700,252.372894 20.441700,252.372894 
	C20.577999,255.658035 20.714298,258.943176 20.479145,262.621582 
	C18.707239,263.350311 17.306786,263.685730 15.425978,264.136230 
	C14.722095,262.002625 14.057831,259.989105 13.318336,257.747559 
	C11.791711,263.902466 10.235895,270.115204 14.256783,275.332581 
	C16.338392,278.033630 20.306402,279.018921 22.798201,277.022247 
	C22.192724,272.283081 21.673349,268.217834 21.153973,264.152588 
M4.006977,174.117264 
	C4.238286,178.135818 2.888366,182.699463 7.779115,185.710449 
	C6.947102,180.400833 6.207091,175.678329 5.431975,170.731812 
	C4.931134,171.654755 4.481503,172.483337 4.006977,174.117264 
M10.972246,253.602493 
	C11.267640,251.894608 11.563034,250.186737 11.858427,248.478851 
	C11.281486,248.389313 10.704543,248.299789 10.127602,248.210251 
	C9.226296,254.366852 8.324991,260.523468 7.423687,266.680084 
	C7.729644,266.720886 8.035603,266.761688 8.341560,266.802490 
	C9.181882,262.674500 10.022203,258.546509 10.972246,253.602493 
M8.043661,82.767265 
	C8.533953,83.817345 9.024245,84.867424 9.837628,86.609489 
	C9.837628,80.523132 9.837628,75.275383 9.837628,70.027634 
	C9.575665,70.008286 9.313703,69.988930 9.051740,69.969582 
	C8.704340,73.958069 8.356940,77.946556 8.043661,82.767265 
M14.635941,194.197235 
	C13.907570,193.595093 13.179200,192.992950 11.933541,191.963181 
	C11.515072,195.623001 11.159633,198.731583 10.804193,201.840164 
	C11.203366,201.960968 11.602539,202.081772 12.001713,202.202576 
	C12.972631,199.761276 13.943549,197.319962 14.635941,194.197235 
z"/>
<path fill="#000000" opacity="1.000000" stroke="none" 
	d="
M27.468655,281.000000 
	C28.474329,279.377502 29.948664,277.755035 31.745121,275.982727 
	C37.871559,276.546417 43.001415,275.449310 47.572243,271.349823 
	C48.984653,270.083038 51.823448,269.910828 53.956028,270.050262 
	C57.904301,270.308319 62.076462,267.022644 61.909580,262.490479 
	C61.650223,255.446716 60.752171,248.427933 60.214424,241.391708 
	C60.105148,239.961838 60.507008,238.499161 60.475796,237.055878 
	C60.388382,233.013474 60.272942,228.968719 60.026859,224.933533 
	C59.773911,220.785812 59.024551,216.644272 59.075222,212.507156 
	C59.180325,203.925278 59.612476,195.345230 60.033798,186.770508 
	C60.193737,183.515472 60.077255,180.037354 61.218945,177.101135 
	C62.282063,174.367004 63.798954,170.770691 68.504326,172.643845 
	C70.106583,173.281677 72.284111,172.474411 74.605881,172.567841 
	C75.125114,174.809708 75.237259,176.811172 75.378372,179.329575 
	C78.428123,177.577728 81.015610,176.091400 83.607399,174.602615 
	C84.008705,178.101578 83.806740,181.397949 84.850769,184.235947 
	C86.346207,188.301010 85.877678,191.832474 84.720261,195.875946 
	C81.819359,206.010391 80.548920,216.085663 90.539810,222.671387 
	C89.029228,240.115204 87.575569,256.901733 85.987610,275.239105 
	C88.578606,273.104797 90.117828,271.836914 90.861694,271.224152 
	C93.085701,273.558502 95.310028,275.791260 97.399933,278.143463 
	C98.108002,278.940399 98.476379,280.039154 99.000000,281.000000 
	C75.312439,281.000000 51.624878,281.000000 27.468655,281.000000 
z"/>
<path fill="#000000" opacity="1.000000" stroke="none" 
	d="
M151.000000,245.531342 
	C147.264709,245.778458 144.046616,240.433472 145.109772,235.853531 
	C146.708847,228.964905 146.793976,222.088928 144.137100,215.542313 
	C141.455002,208.933578 144.974594,203.089554 145.518066,196.884216 
	C146.537491,185.244339 147.845566,173.559052 147.611511,161.921249 
	C147.537079,158.219955 147.656418,151.523651 140.567871,150.704453 
	C142.443817,145.182465 144.334991,139.615616 146.302170,133.825073 
	C142.549438,132.686218 142.480667,130.605179 143.744827,127.522385 
	C145.725937,122.691193 146.639648,118.031387 144.610031,112.432007 
	C143.204254,108.553703 145.241074,103.483620 145.438446,98.932983 
	C145.495468,97.618675 144.486481,96.267181 144.008896,94.917633 
	C143.660233,93.932365 142.968307,92.843170 143.141983,91.936852 
	C143.964615,87.643990 145.032104,83.398041 146.106354,78.726578 
	C144.776443,78.296867 143.493118,77.882217 141.998032,77.399139 
	C142.723175,74.117302 143.446045,70.845779 144.451553,66.295105 
	C142.004364,67.516510 140.607040,68.213921 139.137543,68.947365 
	C137.354965,66.564827 144.103073,61.660778 138.133377,60.656025 
	C138.424408,53.531395 138.377060,46.816494 139.062637,40.177277 
	C139.715088,33.858898 136.919922,28.708376 134.703384,23.249027 
	C130.919800,13.930054 122.697289,11.070861 113.196609,16.546568 
	C113.064430,14.024780 112.939537,11.642099 112.814644,9.259418 
	C112.576813,9.686513 112.338974,10.113608 112.101143,10.540703 
	C109.411041,9.553238 106.732376,8.532641 104.024391,7.596950 
	C103.121994,7.285143 102.103867,6.913292 101.208160,7.044280 
	C96.918076,7.671660 94.876503,5.601096 94.637085,1.305378 
	C113.639503,1.000000 132.279007,1.000000 151.000000,1.000000 
	C151.000000,82.354210 151.000000,163.708450 151.000000,245.531342 
z"/>
<path fill="#D11E19" opacity="1.000000" stroke="none" 
	d="
M99.333328,281.000000 
	C98.476379,280.039154 98.108002,278.940399 97.399933,278.143463 
	C95.310028,275.791260 93.085701,273.558502 90.861694,271.224152 
	C90.117828,271.836914 88.578606,273.104797 85.987610,275.239105 
	C87.575569,256.901733 89.029228,240.115204 90.539810,222.671387 
	C80.548920,216.085663 81.819359,206.010391 84.720261,195.875946 
	C85.877678,191.832474 86.346207,188.301010 84.850769,184.235947 
	C83.806740,181.397949 84.008705,178.101578 83.607399,174.602615 
	C81.015610,176.091400 78.428123,177.577728 75.378372,179.329575 
	C75.237259,176.811172 75.125114,174.809708 74.984596,172.463898 
	C78.146469,169.763565 81.134377,167.033127 84.589050,165.166580 
	C87.509514,163.588669 90.970764,163.011688 93.805344,162.114334 
	C93.805344,166.300507 93.805344,169.331390 93.805344,173.343307 
	C97.366798,171.312347 99.629089,170.022247 102.655739,168.296280 
	C102.790123,170.564926 102.890808,172.263916 102.991386,173.962906 
	C103.099121,175.782944 102.499016,178.197021 103.439751,179.317841 
	C107.071747,183.645096 105.191475,187.744232 103.460220,191.786499 
	C99.558533,200.896378 101.036171,208.603470 108.168633,215.672791 
	C109.701942,217.192535 109.751564,220.815414 109.538124,223.391052 
	C108.322968,238.054825 106.820969,252.694809 105.286438,268.699310 
	C107.745926,266.855347 109.279816,265.705353 111.208878,264.259064 
	C112.446777,268.462463 113.660294,272.502075 118.442032,273.739685 
	C117.797180,274.470337 117.047920,274.641479 116.705925,275.109924 
	C114.747620,277.792328 112.921600,279.438873 108.895805,278.374939 
	C106.651871,277.781860 103.656654,280.031464 101.000000,281.000000 
	C100.555557,281.000000 100.111107,281.000000 99.333328,281.000000 
M90.699051,217.570923 
	C95.120186,208.680664 89.336235,200.071152 90.349922,191.197678 
	C88.912582,193.070404 88.026558,194.956467 87.567429,196.941315 
	C85.933533,204.004852 84.039360,211.150879 90.699051,217.570923 
M98.855331,242.453323 
	C99.571579,244.522461 100.287827,246.591599 101.004074,248.660721 
	C101.498329,248.611755 101.992592,248.562790 102.486847,248.513824 
	C102.486847,240.747726 102.486847,232.981628 102.486847,225.215530 
	C102.011154,225.126572 101.535461,225.037598 101.059769,224.948624 
	C100.157585,230.565750 99.255409,236.182877 98.855331,242.453323 
M100.005753,264.630768 
	C99.838936,263.260162 99.672112,261.889557 99.437836,259.964752 
	C94.208946,265.577118 94.318573,268.507812 100.642159,274.696045 
	C100.376877,270.716125 100.200920,268.076294 100.005753,264.630768 
M87.018936,176.782898 
	C87.259216,178.973480 87.499504,181.164078 87.739784,183.354660 
	C88.011642,183.349930 88.283501,183.345200 88.555359,183.340454 
	C89.672462,180.397888 90.789566,177.455307 91.906670,174.512741 
	C91.616547,174.184372 91.326416,173.856018 91.036293,173.527664 
	C89.719902,174.339783 88.403519,175.151901 87.018936,176.782898 
z"/>
<path fill="#000000" opacity="1.000000" stroke="none" 
	d="
M50.601643,7.958093 
	C42.830711,7.189353 36.677868,9.833359 32.006279,15.627965 
	C29.400530,18.860123 27.487612,22.645144 24.946636,25.937243 
	C23.279585,28.097080 20.816978,29.636873 19.111687,31.774302 
	C13.497169,38.811607 10.907452,46.901348 10.901608,55.935467 
	C10.900316,57.933578 9.948223,60.076187 8.968722,61.902794 
	C5.238434,68.859154 4.108518,76.379341 5.227757,83.944206 
	C5.747376,87.456276 8.562098,90.628761 10.724858,94.683502 
	C5.456068,101.453224 5.841396,110.363663 6.616660,119.955894 
	C7.545867,131.452866 6.770902,143.146317 5.942069,154.697861 
	C5.608459,159.347397 3.173328,163.846176 1.347320,168.206787 
	C1.000000,112.440323 1.000000,56.880650 1.000000,1.000000 
	C21.019751,1.000000 41.041218,1.000000 61.531342,0.999999 
	C61.396896,1.663051 60.913342,2.545227 60.169807,2.950866 
	C57.104664,4.623071 53.960629,6.150674 50.601643,7.958093 
z"/>
<path fill="#000000" opacity="1.000000" stroke="none" 
	d="
M0.999999,185.468658 
	C3.478494,186.688049 5.956989,188.376083 8.655783,190.214157 
	C5.644266,198.552872 5.461525,207.025604 6.782377,215.822021 
	C7.523880,220.760223 6.177494,225.986496 6.065153,231.089447 
	C6.011919,233.507507 6.191833,236.119949 7.063169,238.330093 
	C8.933069,243.073105 7.497922,247.198578 6.360798,251.825775 
	C5.000023,257.363068 4.282587,263.602966 5.489365,269.050568 
	C6.417945,273.242371 10.752370,276.679657 13.286150,280.726227 
	C9.016273,281.000000 5.032545,281.000000 1.000000,281.000000 
	C1.000000,249.312454 1.000000,217.624893 0.999999,185.468658 
z"/>
<path fill="#000000" opacity="1.000000" stroke="none" 
	d="
M101.468658,281.000000 
	C103.656654,280.031464 106.651871,277.781860 108.895805,278.374939 
	C112.921600,279.438873 114.747620,277.792328 116.705925,275.109924 
	C117.047920,274.641479 117.797180,274.470337 118.672852,273.998840 
	C121.702057,273.559723 124.667816,272.450714 127.080109,273.177856 
	C132.391586,274.778931 135.353104,271.689453 138.629288,268.768402 
	C142.203064,265.582031 145.772873,262.391205 149.352280,259.211182 
	C149.719208,258.885193 150.139709,258.619507 150.767670,258.662903 
	C151.000000,266.288483 151.000000,273.576965 151.000000,281.000000 
	C134.645981,281.000000 118.291649,281.000000 101.468658,281.000000 
z"/>
<path fill="#000000" opacity="1.000000" stroke="none" 
	d="
M78.539368,1.000000 
	C77.237923,2.296552 75.435074,4.692665 73.723419,4.629208 
	C71.222328,4.536485 68.786690,2.678310 66.661575,1.286319 
	C70.692909,1.000000 74.385818,1.000000 78.539368,1.000000 
z"/>
<path fill="#000000" opacity="1.000000" stroke="none" 
	d="
M81.865425,131.985229 
	C79.865509,132.864441 77.608940,133.405853 75.917465,134.691025 
	C72.029221,137.645309 68.662025,141.341492 63.104462,137.540756 
	C62.144161,136.884033 59.628876,138.501038 57.180660,139.273163 
	C57.180660,134.660324 57.180660,130.458328 57.180660,125.255058 
	C55.072697,126.439163 53.850155,127.125900 52.627613,127.812637 
	C52.293484,127.585571 51.959358,127.358513 51.625229,127.131447 
	C52.703873,125.633865 53.748058,124.109970 54.867683,122.643684 
	C58.060448,118.462372 61.391766,114.230927 58.919956,108.560333 
	C58.064991,106.598938 56.296692,105.035675 55.012276,103.376709 
	C55.012276,97.469017 54.691212,91.192116 55.097542,84.962662 
	C55.554905,77.950882 57.319061,70.982330 57.323891,63.994152 
	C57.329388,56.040222 63.072693,50.259083 64.438385,42.397858 
	C66.803749,41.469826 68.750443,40.967991 71.425545,40.278378 
	C69.097237,44.982121 70.889046,45.677200 74.776718,46.214218 
	C83.285385,47.389545 86.484039,50.365608 86.474983,55.846451 
	C86.468445,59.806538 85.735039,63.808445 86.114494,67.715096 
	C86.572716,72.432686 87.952888,77.021599 92.167419,79.575432 
	C89.918610,85.433685 87.443115,91.149841 85.527252,97.047783 
	C82.762680,105.558449 83.249481,106.838974 88.583389,109.948105 
	C86.332153,117.332886 84.098785,124.659058 81.865425,131.985229 
z"/>
<path fill="#D11F19" opacity="1.000000" stroke="none" 
	d="
M81.896027,132.347610 
	C84.098785,124.659058 86.332153,117.332886 88.583389,109.948105 
	C83.249481,106.838974 82.762680,105.558449 85.527252,97.047783 
	C87.443115,91.149841 89.918610,85.433685 92.167419,79.575432 
	C87.952888,77.021599 86.572716,72.432686 86.114494,67.715096 
	C85.735039,63.808445 86.468445,59.806538 86.474983,55.846451 
	C86.484039,50.365608 83.285385,47.389545 74.776718,46.214218 
	C70.889046,45.677200 69.097237,44.982121 71.425545,40.278378 
	C68.750443,40.967991 66.803749,41.469826 64.489853,42.006374 
	C63.892479,36.230953 66.153862,34.661472 73.367630,35.242874 
	C78.615143,35.665802 83.885468,35.805790 87.489075,35.988113 
	C90.017021,37.927048 91.356140,39.501926 93.046913,40.129669 
	C95.988708,41.221882 99.917305,40.865459 102.001640,42.722240 
	C104.141258,44.628273 105.857552,48.622463 105.501221,51.414642 
	C104.436981,59.753868 104.908699,67.257912 111.070335,73.694168 
	C111.668488,74.318985 111.055878,76.405739 110.610451,77.675346 
	C108.470528,83.774834 106.127121,89.802986 103.991585,95.903938 
	C102.595291,99.892967 103.383957,102.915222 108.362572,103.358604 
	C106.245728,114.609901 98.333839,124.276215 101.729958,136.592072 
	C99.800064,137.551300 97.932388,138.479599 95.064392,139.905090 
	C96.126945,137.259857 96.801605,135.580307 97.769608,133.170456 
	C95.346237,133.947433 93.541237,134.526169 91.350769,134.669006 
	C90.148758,130.492233 89.332199,126.751350 88.515648,123.010468 
	C88.199326,122.947449 87.883003,122.884438 87.566689,122.821426 
	C86.755577,127.875732 85.944466,132.930054 85.133354,137.984360 
	C82.731667,139.039963 80.329979,140.095581 77.928299,141.151199 
	C77.763268,140.839188 77.598236,140.527176 77.433205,140.215164 
	C78.931007,137.713440 80.428818,135.211716 81.896027,132.347610 
M93.503090,70.984612 
	C95.225967,70.871300 96.948853,70.757988 98.671730,70.644676 
	C96.771851,68.457840 94.871971,66.270996 92.972099,64.084160 
	C92.549324,64.352760 92.126556,64.621353 91.703781,64.889954 
	C92.123009,66.734535 92.542236,68.579109 93.503090,70.984612 
M96.974640,53.919674 
	C96.187347,53.068050 95.400047,52.216431 94.430336,51.167480 
	C92.150986,58.306320 92.597618,59.151035 98.196716,58.288807 
	C97.857269,57.046688 97.528564,55.843853 96.974640,53.919674 
z"/>
<path fill="#D22119" opacity="1.000000" stroke="none" 
	d="
M27.933300,257.554504 
	C30.758699,255.169907 33.345673,262.183289 36.086166,255.270660 
	C36.360058,255.892944 36.633953,256.515228 36.907848,257.137512 
	C37.572323,261.118805 38.591171,265.083221 38.782360,269.087128 
	C38.920258,271.975067 35.365681,273.003723 32.247238,271.264954 
	C27.693344,268.725800 26.291218,264.514465 27.933300,257.554504 
z"/>
<path fill="#D2221A" opacity="1.000000" stroke="none" 
	d="
M110.457024,190.230255 
	C110.949631,197.980179 111.433594,205.337265 111.966324,213.435562 
	C103.246910,209.311554 102.616760,195.199158 110.112473,184.372147 
	C110.265251,186.857788 110.356819,188.347610 110.457024,190.230255 
z"/>
<path fill="#000000" opacity="1.000000" stroke="none" 
	d="
M21.089392,263.873047 
	C21.673349,268.217834 22.192724,272.283081 22.798201,277.022247 
	C20.306402,279.018921 16.338392,278.033630 14.256783,275.332581 
	C10.235895,270.115204 11.791711,263.902466 13.318336,257.747559 
	C14.057831,259.989105 14.722095,262.002625 15.425978,264.136230 
	C17.306786,263.685730 18.707239,263.350311 20.491171,263.027252 
	C20.924704,263.224243 20.974756,263.408875 21.089392,263.873047 
z"/>
<path fill="#000000" opacity="1.000000" stroke="none" 
	d="
M125.890297,28.022738 
	C127.177422,28.704823 128.864410,29.467749 128.851685,30.201180 
	C128.807556,32.743298 128.172592,35.275166 127.634811,38.600048 
	C123.216805,32.615982 120.762177,35.231831 118.896500,41.083157 
	C117.664322,37.205345 116.783592,34.433556 116.034851,32.077187 
	C119.370758,30.673574 122.440826,29.381815 125.890297,28.022738 
z"/>
<path fill="#000000" opacity="1.000000" stroke="none" 
	d="
M49.825127,254.313782 
	C38.919853,249.625000 48.018147,243.205200 48.679008,237.373474 
	C51.008156,242.736786 53.514523,248.081589 49.825127,254.313782 
z"/>
<path fill="#D12019" opacity="1.000000" stroke="none" 
	d="
M107.826881,134.457275 
	C104.561394,135.367706 103.470749,134.785751 103.916145,131.746490 
	C104.772598,125.902367 106.178467,120.138763 108.203674,114.441719 
	C108.570976,121.054001 110.385468,127.596405 107.826881,134.457275 
z"/>
<path fill="#000000" opacity="1.000000" stroke="none" 
	d="
M140.353592,259.218750 
	C140.396622,254.197540 142.489655,250.795303 146.483841,248.464752 
	C150.070084,253.706177 146.848236,261.060150 139.314636,264.660889 
	C139.582870,262.917755 139.842697,261.229187 140.353592,259.218750 
z"/>
<path fill="#D22019" opacity="1.000000" stroke="none" 
	d="
M127.973175,171.056503 
	C127.603447,172.890533 127.610443,174.614456 126.772820,175.664825 
	C125.138687,177.713974 122.574059,177.416901 122.391937,174.909164 
	C122.048912,170.186005 122.742096,165.387604 123.004509,160.620483 
	C123.684700,160.589020 124.364891,160.557541 125.045082,160.526077 
	C126.019447,163.898041 126.993813,167.270020 127.973175,171.056503 
z"/>
<path fill="#D3241A" opacity="1.000000" stroke="none" 
	d="
M122.016861,238.982239 
	C121.840988,240.348724 121.665115,241.715225 121.407379,243.717773 
	C115.657486,236.004990 116.150398,226.188568 123.082169,217.547119 
	C122.839027,222.292908 122.659622,225.794678 122.242462,229.327835 
	C121.883850,228.518829 121.762978,227.678436 121.582008,226.420135 
	C118.132881,233.277573 118.175003,234.036728 122.016861,238.982239 
z"/>
<path fill="#D2221A" opacity="1.000000" stroke="none" 
	d="
M76.325378,24.339403 
	C78.027924,22.438347 79.643845,20.878313 81.259773,19.318279 
	C83.061142,21.792629 84.862503,24.266977 86.602028,26.656380 
	C82.181465,30.555498 78.535309,28.820450 76.325378,24.339403 
z"/>
<path fill="#D2211A" opacity="1.000000" stroke="none" 
	d="
M114.827057,258.036987 
	C116.055260,256.564575 117.092010,255.396927 118.128761,254.229279 
	C118.594627,254.357254 119.060501,254.485229 119.526367,254.613220 
	C119.526367,258.982635 119.526367,263.352051 119.526367,267.721466 
	C118.866783,267.881409 118.207207,268.041382 117.547623,268.201324 
	C116.576950,264.914795 115.606277,261.628265 114.827057,258.036987 
z"/>
<path fill="#D22019" opacity="1.000000" stroke="none" 
	d="
M124.043503,195.639893 
	C122.993843,198.489090 121.963379,200.915268 120.932915,203.341446 
	C120.218987,203.149521 119.505066,202.957581 118.791138,202.765656 
	C119.523155,197.666153 120.255165,192.566650 120.987175,187.467148 
	C121.735893,187.435181 122.484619,187.403198 123.233337,187.371216 
	C123.509789,189.986435 123.786240,192.601639 124.043503,195.639893 
z"/>
<path fill="#000000" opacity="1.000000" stroke="none" 
	d="
M51.003670,117.932182 
	C51.256748,114.137253 51.510998,110.754578 51.835938,106.431381 
	C57.568455,110.820366 57.007061,116.398254 51.452419,121.185417 
	C51.274311,120.054886 51.139576,119.199661 51.003670,117.932182 
z"/>
<path fill="#000000" opacity="1.000000" stroke="none" 
	d="
M85.473450,137.982910 
	C85.944466,132.930054 86.755577,127.875732 87.566689,122.821426 
	C87.883003,122.884438 88.199326,122.947449 88.515648,123.010468 
	C89.332199,126.751350 90.148758,130.492233 90.988892,134.638275 
	C91.012482,135.043442 91.043320,135.028320 90.788712,135.054489 
	C90.342323,135.344818 90.150551,135.608994 89.958786,135.873169 
	C88.577042,136.575928 87.195297,137.278687 85.473450,137.982910 
z"/>
<path fill="#000000" opacity="1.000000" stroke="none" 
	d="
M43.008797,133.336075 
	C44.210484,131.733276 45.408451,130.558411 46.895493,129.100067 
	C50.190521,137.525787 49.675880,138.899185 43.005077,140.528290 
	C43.005077,138.208908 43.005077,135.986465 43.008797,133.336075 
z"/>
<path fill="#000000" opacity="1.000000" stroke="none" 
	d="
M137.936569,243.593018 
	C137.316071,244.377167 136.939621,244.895187 136.617676,245.338211 
	C131.037842,241.128677 135.819656,237.507965 137.256119,233.600861 
	C142.140289,239.411179 142.254181,240.686966 137.936569,243.593018 
z"/>
<path fill="#D52C1C" opacity="1.000000" stroke="none" 
	d="
M31.974903,61.378170 
	C31.166834,67.624725 30.384579,73.477394 29.602322,79.330055 
	C29.111294,79.292435 28.620266,79.254814 28.129238,79.217194 
	C28.648195,72.208824 29.167152,65.200462 29.686110,58.192101 
	C30.280937,58.178238 30.875765,58.164379 31.470592,58.150517 
	C31.647301,59.095104 31.824009,60.039696 31.974903,61.378170 
z"/>
<path fill="#000000" opacity="1.000000" stroke="none" 
	d="
M125.540863,17.221710 
	C127.669479,18.515104 129.462585,19.635681 131.255676,20.756256 
	C130.748108,21.529625 130.240540,22.302992 129.732971,23.076361 
	C126.391373,22.675999 123.049767,22.275637 119.371300,21.834917 
	C120.109505,19.862061 120.802681,18.009573 121.605171,15.864918 
	C122.854813,16.275883 124.030083,16.662388 125.540863,17.221710 
z"/>
<path fill="#D2211A" opacity="1.000000" stroke="none" 
	d="
M38.481514,203.172333 
	C37.750618,205.097977 37.142052,206.643860 36.533489,208.189758 
	C36.078571,208.071808 35.623653,207.953857 35.168736,207.835907 
	C35.164913,203.261642 33.711784,198.509399 36.719650,194.305023 
	C37.347717,194.335205 37.975780,194.365402 38.603848,194.395599 
	C38.603848,197.194595 38.603848,199.993576 38.481514,203.172333 
z"/>
<path fill="#D2231A" opacity="1.000000" stroke="none" 
	d="
M34.006859,234.162720 
	C35.498367,238.036911 36.678776,241.908249 38.171120,246.802643 
	C31.843287,244.515182 31.154011,241.542664 34.006859,234.162720 
z"/>
<path fill="#D3251A" opacity="1.000000" stroke="none" 
	d="
M83.538147,157.974243 
	C80.367630,163.080536 76.387756,160.318787 71.509315,159.687347 
	C75.825432,156.447723 79.170113,154.149292 83.538147,157.974243 
z"/>
<path fill="#D3241A" opacity="1.000000" stroke="none" 
	d="
M24.023659,178.285126 
	C23.638727,179.096176 22.855473,180.082184 22.699636,179.991379 
	C18.500399,177.544647 17.753975,170.743332 21.303751,166.630020 
	C22.191864,170.478867 23.054792,174.218552 24.023659,178.285126 
z"/>
<path fill="#D2231A" opacity="1.000000" stroke="none" 
	d="
M27.091391,242.787506 
	C26.623257,248.314850 25.818197,253.779678 25.013138,259.244507 
	C24.494461,259.160522 23.975784,259.076538 23.457106,258.992554 
	C22.480730,253.258362 23.778355,247.865662 27.091391,242.787506 
z"/>
<path fill="#D3261B" opacity="1.000000" stroke="none" 
	d="
M29.163952,195.011581 
	C28.360119,196.423538 27.712473,197.529068 27.064829,198.634583 
	C26.655861,198.553925 26.246895,198.473251 25.837927,198.392593 
	C26.307964,194.561264 26.778004,190.729935 27.263920,186.769165 
	C32.573277,188.444794 32.657154,188.905411 29.163952,195.011581 
z"/>
<path fill="#D4281B" opacity="1.000000" stroke="none" 
	d="
M109.891914,94.004501 
	C109.955170,94.932869 110.107689,95.455223 109.994637,95.911819 
	C109.622475,97.414879 109.218910,98.919876 108.649063,100.353226 
	C108.568642,100.555511 106.976265,100.441727 106.961327,100.342339 
	C106.731018,98.809937 106.336174,97.201836 106.593987,95.718063 
	C107.083168,92.902641 107.965569,90.155548 109.859550,87.523758 
	C109.859550,89.538628 109.859550,91.553497 109.891914,94.004501 
z"/>
<path fill="#D3261A" opacity="1.000000" stroke="none" 
	d="
M29.397793,159.339005 
	C25.729229,155.793976 25.697954,152.352158 29.106201,147.400848 
	C30.999813,150.087311 30.999813,150.087311 29.397793,159.339005 
z"/>
<path fill="#D11F19" opacity="1.000000" stroke="none" 
	d="
M89.177643,23.241329 
	C86.645905,18.705074 88.552910,16.236721 93.032936,14.472990 
	C95.044044,18.888250 93.212990,21.517775 89.177643,23.241329 
z"/>
<path fill="#D42A1B" opacity="1.000000" stroke="none" 
	d="
M31.055140,168.684952 
	C30.743694,167.602066 30.062365,165.876755 30.648758,165.042160 
	C32.592682,162.275467 34.993256,159.829620 37.740150,156.658691 
	C38.876484,162.861023 33.209381,164.687592 31.055140,168.684952 
z"/>
<path fill="#D2211A" opacity="1.000000" stroke="none" 
	d="
M116.792061,48.415382 
	C116.801727,50.326393 116.799637,51.956699 116.345673,53.449596 
	C116.266106,53.711231 113.358505,53.527100 113.330376,53.327309 
	C112.976280,50.812454 112.911453,48.256874 112.772652,45.711712 
	C113.236893,45.597538 113.701141,45.483368 114.165390,45.369194 
	C114.985847,46.275459 115.806305,47.181721 116.792061,48.415382 
z"/>
<path fill="#000000" opacity="1.000000" stroke="none" 
	d="
M54.959061,43.752018 
	C53.852707,46.518967 52.771885,48.880840 51.181324,52.356628 
	C49.291512,47.805874 48.761971,44.799782 51.505219,42.079052 
	C53.465099,40.135262 54.947079,39.847618 54.959061,43.752018 
z"/>
<path fill="#000000" opacity="1.000000" stroke="none" 
	d="
M51.004395,227.167511 
	C51.669640,223.987183 52.334389,221.239548 52.999138,218.491913 
	C53.635891,218.603821 54.272648,218.715744 54.909401,218.827652 
	C54.230209,223.516495 53.551018,228.205338 52.871822,232.894180 
	C52.333061,232.905975 51.794300,232.917770 51.255543,232.929565 
	C51.171661,231.153107 51.087780,229.376648 51.004395,227.167511 
z"/>
<path fill="#D3261A" opacity="1.000000" stroke="none" 
	d="
M25.880756,96.654266 
	C26.350546,95.624573 26.730587,94.946129 27.110628,94.267693 
	C27.324419,94.334236 27.538208,94.400787 27.751997,94.467331 
	C27.300446,100.381775 26.848892,106.296219 26.397339,112.210663 
	C25.836515,112.185944 25.275690,112.161224 24.714867,112.136505 
	C25.073580,107.092842 25.432295,102.049187 25.880756,96.654266 
z"/>
<path fill="#000000" opacity="1.000000" stroke="none" 
	d="
M22.126648,208.301895 
	C21.485304,210.262680 20.786030,211.810471 20.086754,213.358246 
	C19.623970,213.281967 19.161184,213.205688 18.698399,213.129410 
	C19.135696,208.949753 19.572994,204.770111 20.010292,200.590454 
	C20.441124,200.635712 20.871956,200.680954 21.570656,200.867798 
	C21.915253,203.302582 21.991983,205.595734 22.126648,208.301895 
z"/>
<path fill="#D3261A" opacity="1.000000" stroke="none" 
	d="
M23.988312,164.029388 
	C23.984306,161.991745 23.984306,160.363647 23.984306,157.996063 
	C26.766663,162.761337 29.532850,166.748291 25.141804,171.888153 
	C24.718470,169.144730 24.355394,166.791824 23.988312,164.029388 
z"/>
<path fill="#000000" opacity="1.000000" stroke="none" 
	d="
M139.251495,229.547089 
	C139.824036,226.417206 140.576050,223.646378 141.328064,220.875549 
	C141.647110,220.863922 141.966141,220.852295 142.285187,220.840668 
	C142.571686,224.786514 142.858185,228.732361 143.144684,232.678192 
	C142.771576,232.789368 142.398468,232.900528 142.025375,233.011688 
	C141.160568,231.976517 140.295776,230.941330 139.251495,229.547089 
z"/>
<path fill="#D3261A" opacity="1.000000" stroke="none" 
	d="
M117.598557,210.838348 
	C118.669426,209.367599 119.642502,208.267822 120.615570,207.168030 
	C121.091606,207.487396 121.567650,207.806763 122.043686,208.126114 
	C121.062416,211.004700 120.081139,213.883286 119.099869,216.761871 
	C118.566833,216.674255 118.033798,216.586639 117.500763,216.499039 
	C117.500763,214.735794 117.500763,212.972534 117.598557,210.838348 
z"/>
<path fill="#D52E1C" opacity="1.000000" stroke="none" 
	d="
M23.046637,73.504578 
	C23.195068,72.521950 23.334764,71.898720 23.474461,71.275490 
	C23.910046,71.203453 24.345631,71.131424 24.781214,71.059395 
	C25.526546,74.914520 26.271879,78.769646 27.017212,82.624771 
	C26.455101,82.779762 25.892992,82.934761 25.330883,83.089752 
	C24.566555,80.014496 23.802229,76.939232 23.046637,73.504578 
z"/>
<path fill="#D4281B" opacity="1.000000" stroke="none" 
	d="
M80.524002,164.520782 
	C77.611450,168.201477 73.864746,169.141815 69.697212,168.699661 
	C69.517723,168.168732 69.338234,167.637787 69.158745,167.106857 
	C72.452682,166.040161 75.746628,164.973465 79.592438,164.027374 
	C80.270882,164.272247 80.397438,164.396515 80.524002,164.520782 
z"/>
<path fill="#D2221A" opacity="1.000000" stroke="none" 
	d="
M109.660240,168.247375 
	C109.864326,170.770172 109.694962,173.186157 109.525589,175.602127 
	C104.938095,170.499130 105.101974,169.405914 109.660240,168.247375 
z"/>
<path fill="#D2221A" opacity="1.000000" stroke="none" 
	d="
M110.946823,135.485107 
	C111.883965,132.516769 112.757912,129.898407 113.631859,127.280045 
	C114.145805,127.378838 114.659744,127.477623 115.173683,127.576408 
	C114.761276,130.430969 114.464539,133.310760 113.851685,136.121613 
	C113.706169,136.789001 112.501556,137.225494 111.784111,137.768188 
	C111.483948,137.123825 111.183792,136.479462 110.946823,135.485107 
z"/>
<path fill="#000000" opacity="1.000000" stroke="none" 
	d="
M88.633598,6.769457 
	C87.192940,6.085207 86.082176,5.130970 84.986740,5.148253 
	C83.299126,5.174880 81.622017,5.867543 79.940453,6.277660 
	C79.832458,5.690858 79.724464,5.104056 79.616470,4.517253 
	C82.735069,4.014375 85.841553,3.331153 88.979774,3.120346 
	C89.901299,3.058443 90.912827,4.336580 91.883110,5.000561 
	C90.912193,5.645294 89.941277,6.290026 88.633598,6.769457 
z"/>
<path fill="#D2231A" opacity="1.000000" stroke="none" 
	d="
M126.876534,256.222504 
	C126.986504,254.284836 127.149628,252.716507 127.312752,251.148178 
	C128.127991,251.224640 128.943222,251.301117 129.758469,251.377579 
	C129.618149,254.069397 129.477829,256.761230 129.337509,259.453033 
	C128.827103,259.482269 128.316711,259.511475 127.806305,259.540710 
	C127.514099,258.557739 127.221893,257.574799 126.876534,256.222504 
z"/>
<path fill="#D4291B" opacity="1.000000" stroke="none" 
	d="
M114.864899,198.201843 
	C115.282051,194.414597 115.685349,190.998215 116.088654,187.581833 
	C118.496262,192.090836 116.815361,196.252899 115.171722,200.461655 
	C115.064835,199.832001 114.957939,199.202362 114.864899,198.201843 
z"/>
<path fill="#D42A1B" opacity="1.000000" stroke="none" 
	d="
M38.112381,232.191086 
	C39.616550,232.076416 41.540504,231.829315 42.565262,232.673599 
	C43.467571,233.416992 43.364601,235.380585 43.705574,236.805313 
	C43.251373,236.974701 42.797173,237.144104 42.342976,237.313492 
	C40.942402,235.720032 39.541828,234.126556 38.112381,232.191086 
z"/>
<path fill="#000000" opacity="1.000000" stroke="none" 
	d="
M51.991707,98.744614 
	C51.213932,100.581398 50.439499,101.997704 49.665066,103.414017 
	C48.988953,103.110176 48.312843,102.806335 47.636730,102.502495 
	C48.818096,99.286247 49.999458,96.070000 51.180824,92.853745 
	C51.452232,92.868256 51.723637,92.882767 51.995045,92.897278 
	C51.995045,94.706230 51.995045,96.515190 51.991707,98.744614 
z"/>
<path fill="#D2221A" opacity="1.000000" stroke="none" 
	d="
M40.055351,176.682037 
	C41.560867,177.382462 42.744160,178.167130 45.008301,179.668518 
	C42.405365,180.814590 40.766129,181.536346 39.126896,182.258102 
	C38.768169,181.933456 38.409443,181.608810 38.050716,181.284164 
	C38.611519,179.778198 39.172325,178.272232 40.055351,176.682037 
z"/>
<path fill="#000000" opacity="1.000000" stroke="none" 
	d="
M120.826904,27.967484 
	C119.258759,28.367985 118.069275,28.737747 116.836235,29.121052 
	C116.446686,21.055504 121.471062,25.420670 125.911461,25.049515 
	C123.581551,26.478996 122.393555,27.207870 120.826904,27.967484 
z"/>
<path fill="#000000" opacity="1.000000" stroke="none" 
	d="
M122.018066,239.010010 
	C118.175003,234.036728 118.132881,233.277573 121.582008,226.420135 
	C121.762978,227.678436 121.883850,228.518829 122.086334,229.701843 
	C122.135666,231.050934 122.103378,232.057373 122.055473,233.871918 
	C122.014580,236.130493 121.989311,237.580978 121.964050,239.031464 
	C121.964043,239.031464 122.019287,239.037796 122.018066,239.010010 
z"/>
<path fill="#000000" opacity="1.000000" stroke="none" 
	d="
M42.975533,222.496155 
	C43.879547,223.423019 44.743000,223.987930 45.657887,224.586502 
	C45.351940,226.489365 45.025558,228.519318 44.667042,230.749161 
	C41.096180,228.368668 40.095844,225.475555 42.342316,221.716431 
	C42.370350,221.669540 42.592010,221.670853 42.654781,221.726685 
	C42.774357,221.833084 42.844372,221.995209 42.975533,222.496155 
z"/>
<path fill="#D3241A" opacity="1.000000" stroke="none" 
	d="
M122.225822,238.832031 
	C121.989311,237.580978 122.014580,236.130493 122.107300,234.246399 
	C122.279030,235.419403 122.383308,237.025986 122.225822,238.832031 
z"/>
<path fill="#D11F19" opacity="1.000000" stroke="none" 
	d="
M21.261478,248.219177 
	C21.163420,249.457108 20.945173,250.594543 20.584312,252.052444 
	C20.441700,252.372894 20.179323,252.144852 20.081486,251.666382 
	C20.289721,250.097488 20.595793,249.007050 20.901867,247.916611 
	C20.901869,247.916611 21.141289,248.118698 21.261478,248.219177 
z"/>
<path fill="#D4281B" opacity="1.000000" stroke="none" 
	d="
M79.967209,163.949417 
	C80.169472,163.600998 80.548843,163.451126 80.928215,163.301270 
	C80.911720,163.640396 80.895218,163.979507 80.701363,164.419708 
	C80.397438,164.396515 80.270882,164.272247 79.967209,163.949417 
z"/>
<path fill="#D11F19" opacity="1.000000" stroke="none" 
	d="
M90.210739,135.828033 
	C90.150551,135.608994 90.342323,135.344818 90.783302,135.037415 
	C90.842575,135.257065 90.652641,135.519989 90.210739,135.828033 
z"/>
<path fill="#000000" opacity="1.000000" stroke="none" 
	d="
M20.919331,247.532562 
	C20.595793,249.007050 20.289721,250.097488 19.952484,251.549896 
	C16.387012,248.898834 15.805712,243.630676 18.521137,238.682495 
	C19.339727,241.551346 20.138262,244.349930 20.919331,247.532562 
z"/>
<path fill="#000000" opacity="1.000000" stroke="none" 
	d="
M4.019424,173.714584 
	C4.481503,172.483337 4.931134,171.654755 5.431975,170.731812 
	C6.207091,175.678329 6.947102,180.400833 7.779115,185.710449 
	C2.888366,182.699463 4.238286,178.135818 4.019424,173.714584 
z"/>
<path fill="#000000" opacity="1.000000" stroke="none" 
	d="
M10.917385,254.010498 
	C10.022203,258.546509 9.181882,262.674500 8.341560,266.802490 
	C8.035603,266.761688 7.729644,266.720886 7.423687,266.680084 
	C8.324991,260.523468 9.226296,254.366852 10.127602,248.210251 
	C10.704543,248.299789 11.281486,248.389313 11.858427,248.478851 
	C11.563034,250.186737 11.267640,251.894608 10.917385,254.010498 
z"/>
<path fill="#000000" opacity="1.000000" stroke="none" 
	d="
M8.026601,82.351151 
	C8.356940,77.946556 8.704340,73.958069 9.051740,69.969582 
	C9.313703,69.988930 9.575665,70.008286 9.837628,70.027634 
	C9.837628,75.275383 9.837628,80.523132 9.837628,86.609489 
	C9.024245,84.867424 8.533953,83.817345 8.026601,82.351151 
z"/>
<path fill="#000000" opacity="1.000000" stroke="none" 
	d="
M14.775204,194.537949 
	C13.943549,197.319962 12.972631,199.761276 12.001713,202.202576 
	C11.602539,202.081772 11.203366,201.960968 10.804193,201.840164 
	C11.159633,198.731583 11.515072,195.623001 11.933541,191.963181 
	C13.179200,192.992950 13.907570,193.595093 14.775204,194.537949 
z"/>
<path fill="#000000" opacity="1.000000" stroke="none" 
	d="
M90.344955,217.451416 
	C84.039360,211.150879 85.933533,204.004852 87.567429,196.941315 
	C88.026558,194.956467 88.912582,193.070404 90.349922,191.197678 
	C89.336235,200.071152 95.120186,208.680664 90.344955,217.451416 
z"/>
<path fill="#000000" opacity="1.000000" stroke="none" 
	d="
M98.604279,242.126663 
	C99.255409,236.182877 100.157585,230.565750 101.059769,224.948624 
	C101.535461,225.037598 102.011154,225.126572 102.486847,225.215530 
	C102.486847,232.981628 102.486847,240.747726 102.486847,248.513824 
	C101.992592,248.562790 101.498329,248.611755 101.004074,248.660721 
	C100.287827,246.591599 99.571579,244.522461 98.604279,242.126663 
z"/>
<path fill="#000000" opacity="1.000000" stroke="none" 
	d="
M100.015358,265.033630 
	C100.200920,268.076294 100.376877,270.716125 100.642159,274.696045 
	C94.318573,268.507812 94.208946,265.577118 99.437836,259.964752 
	C99.672112,261.889557 99.838936,263.260162 100.015358,265.033630 
z"/>
<path fill="#000000" opacity="1.000000" stroke="none" 
	d="
M87.053032,176.373474 
	C88.403519,175.151901 89.719902,174.339783 91.036293,173.527664 
	C91.326416,173.856018 91.616547,174.184372 91.906670,174.512741 
	C90.789566,177.455307 89.672462,180.397888 88.555359,183.340454 
	C88.283501,183.345200 88.011642,183.349930 87.739784,183.354660 
	C87.499504,181.164078 87.259216,178.973480 87.053032,176.373474 
z"/>
<path fill="#000000" opacity="1.000000" stroke="none" 
	d="
M93.232269,70.704147 
	C92.542236,68.579109 92.123009,66.734535 91.703781,64.889954 
	C92.126556,64.621353 92.549324,64.352760 92.972099,64.084160 
	C94.871971,66.270996 96.771851,68.457840 98.671730,70.644676 
	C96.948853,70.757988 95.225967,70.871300 93.232269,70.704147 
z"/>
<path fill="#000000" opacity="1.000000" stroke="none" 
	d="
M97.087250,54.280342 
	C97.528564,55.843853 97.857269,57.046688 98.196716,58.288807 
	C92.597618,59.151035 92.150986,58.306320 94.430336,51.167480 
	C95.400047,52.216431 96.187347,53.068050 97.087250,54.280342 
z"/>
</svg>